# xmcd
# Copyright (C) 1995-1998 Ti Kan
#
# Track frame offsets:
#       150
#       18015
#       37981
#       51335
#       68326
#       84255
#       100260
#       111870
#       125536
#
# Disc length: 1962 seconds
#
# Revision: 0
# Processed by: cddbd v1.5.2PL0 Copyright (c) Steve Scherf et al.
# Submitted via: CD-Transfer v1.0
#
DISCID=6407a809
DTITLE=Mellowtone - 
DYEAR=2011
DGENRE=
TTITLE0=Another Change
TTITLE1=I Will Try
TTITLE2=And Then We Take Berlin
TTITLE3=Love Will Find You
TTITLE4=Stranger
TTITLE5=Clouds Are Gone
TTITLE6=Easy Going
TTITLE7=Just One Year
TTITLE8=All The Pain
EXTD=
EXTT0=
EXTT1=
EXTT2=
EXTT3=
EXTT4=
EXTT5=
EXTT6=
EXTT7=
EXTT8=
PLAYORDER=
